PathFileType	4	(X/Y/Z)	/Users/visionmauri/4_2_1_f_1_Sports2D/4_2_1_f_1_Sports2D_m_person00.trc
DataRate	CameraRate	NumFrames	NumMarkers	Units	OrigDataRate	OrigDataStartFrame	OrigNumFrames
30.0	30.0	6	22	m	30.0	47	382
Frame#	Time	Hip			RHip			RKnee			RAnkle			RBigToe			RSmallToe			RHeel			LHip			LKnee			LAnkle			LBigToe			LSmallToe			LHeel			Neck			Head			Nose			RShoulder			RElbow			RWrist			LShoulder			LElbow			LWrist			
		X1	Y1	Z1	X2	Y2	Z2	X3	Y3	Z3	X4	Y4	Z4	X5	Y5	Z5	X6	Y6	Z6	X7	Y7	Z7	X8	Y8	Z8	X9	Y9	Z9	X10	Y10	Z10	X11	Y11	Z11	X12	Y12	Z12	X13	Y13	Z13	X14	Y14	Z14	X15	Y15	Z15	X16	Y16	Z16	X17	Y17	Z17	X18	Y18	Z18	X19	Y19	Z19	X20	Y20	Z20	X21	Y21	Z21	X22	Y22	Z22
47	1.5707786526684162	1.0308825208624655	0.9448976635054108	0.0301	1.1462837848368737	0.9225886034902542	0.0301	1.1591324054142895	0.5836428598306314	0.129	1.1580216576871114	0.5390062680990313	0.023	1.177245489475257	0.523709672458347	0.2179	1.2093620776274654	0.514879786195483	0.1804	1.1504508501428123	0.5189362709234917	-0.0119	0.9198651289875954	0.9369978747870449	0.0301	0.8909963825236501	0.46287569619724456	0.129	0.8385698393258011	-0.01268325650822704	0.023	0.821076731666139	-0.05368333952243078	0.2179	0.7694863455610327	-0.06599132404436005	0.1804	0.8385496733752507	-0.09203109300122404	-0.0119	1.1478932293970878	1.516271090086003	0.0008	1.2177732687813922	1.6962657368913754	0.0655	1.215366033075238	1.5737032975988416	0.1076	1.3101198594865684	1.4332786002076452	-0.01275	1.4126827946946714	1.1375161589599263	0.0702	1.5516504214276807	0.8736484639927135	0.1076	0.9523929752881045	1.4817266354292813	-0.01275	0.8375968100689379	1.1783878585151368	0.0702	0.8582524800762921	0.9864920952561337	0.1076
48	1.6041994750656166	1.0369145177127344	0.9448453048416597	0.0301	1.150373211723364	0.9210847671020972	0.0301	1.1588324092973477	0.5797132767958131	0.129	1.1571090446419707	0.5343135839392807	0.023	1.1755954942928586	0.5139061825221798	0.2179	1.2065402355674577	0.5126790135698034	0.1804	1.1520481584307765	0.5143262153610557	-0.0119	0.9251980513012208	0.9377149468490482	0.0301	0.894166136704407	0.46266747858303586	0.129	0.8402147262677419	-0.01188823469777373	0.023	0.8210660821311137	-0.058793883721862665	0.2179	0.7709614380820832	-0.06724901942594798	0.1804	0.8381753983738606	-0.091186440088167	-0.0119	1.1534719553296746	1.515157236231575	0.0008	1.219903460537146	1.6951990605394403	0.0655	1.213948877820861	1.5743258993433173	0.1076	1.3182788966109769	1.4300396669869329	-0.01275	1.4185882914276629	1.1391992837896838	0.0702	1.5509993661641552	0.8759624387618447	0.1076	0.9575833843193461	1.4797773575554642	-0.01275	0.8392057606938186	1.1793564903975418	0.0702	0.8567393597778821	0.9845809118752581	0.1076
49	1.637620297462817	1.041157516307314	0.941849672272752	0.0301	1.1544130574745868	0.9157593064009321	0.0301	1.159358890200198	0.5800870591001567	0.129	1.1588079319447275	0.5332540597154125	0.023	1.1736185232022105	0.5076114880541245	0.2179	1.2056599061766096	0.5084981381346731	0.1804	1.153955085826273	0.5114863783042883	-0.0119	0.9314461240248996	0.9350141223533163	0.0301	0.8973154595675181	0.4622865252784876	0.129	0.8412592993309963	-0.011580066718260005	0.023	0.8216516102710053	-0.06162671641009506	0.2179	0.772258208285069	-0.06685878302307849	0.1804	0.8381580319455993	-0.09109601899364049	-0.0119	1.1614079737550822	1.5140028831267842	0.0008	1.2250792436204279	1.693301136104702	0.0655	1.215176972410379	1.5758754006484046	0.1076	1.324537286309301	1.4271693254286737	-0.01275	1.4268160700922656	1.1432011237737973	0.0702	1.551462778539756	0.8808426615645568	0.1076	0.9632416778188693	1.47720979481401	-0.01275	0.8400773910238954	1.1818692532606867	0.0702	0.8587764328300045	0.9764518688483607	0.1076
50	1.6710411198600172	1.0466125933644477	0.9380078403439204	0.0301	1.1588516068453358	0.9091832689922824	0.0301	1.1607394366841077	0.584060226374933	0.129	1.1615786611895338	0.5311080206387064	0.023	1.1712587827497545	0.5000399950878917	0.2179	1.2059641380761146	0.5058566282513334	0.1804	1.1559719575624319	0.5099351325175688	-0.0119	0.9384695554574143	0.9297778326093591	0.0301	0.8996241909478431	0.46199032382584915	0.129	0.8422055548316387	-0.01126055366162727	0.023	0.8211452232497455	-0.05754389914189765	0.2179	0.7711583893934638	-0.06491192227379657	0.1804	0.8398932433141516	-0.09192003156895519	-0.0119	1.1707481279499798	1.512578307085645	0.0008	1.2326640658800772	1.689612414226711	0.0655	1.2219353647480264	1.5761862927122192	0.1076	1.328971705597019	1.4239806166299194	-0.01275	1.4356830910668914	1.148719775497228	0.0702	1.551164946439774	0.8875358890255335	0.1076	0.9700809732693665	1.473893443804696	-0.01275	0.8412163106035058	1.1866246673526442	0.0702	0.8586521235815473	0.9688843897082234	0.1076
51	1.7044619422572176	1.0554098542177235	0.9399614444851414	0.0301	1.1652803438507833	0.9093702158951981	0.0301	1.162172669145786	0.5881826013489359	0.129	1.1642251346050505	0.5278294669330089	0.023	1.1718913360653693	0.49145625661461706	0.2179	1.207970056353861	0.5080785282250196	0.1804	1.157844758504013	0.5089846586424325	-0.0119	0.9459077528049913	0.9294605850587278	0.0301	0.9011142868144343	0.46230875507752334	0.129	0.8432206214833048	-0.010901504570567398	0.023	0.8217475874318935	-0.05019218653300951	0.2179	0.7694634747210439	-0.06409763926819437	0.1804	0.8416111406937105	-0.09239855083241402	-0.0119	1.1797040721391265	1.5102346187400453	0.0008	1.2421421469581866	1.6845852136465318	0.0655	1.2340478273530162	1.573050939556987	0.1076	1.3334938744445828	1.420314679652508	-0.01275	1.444102131314188	1.1543175785468804	0.0702	1.5494963892487288	0.8941883227274893	0.1076	0.9784890592443156	1.4707728685781207	-0.01275	0.84412622675762	1.1924672750781937	0.0702	0.8569858237671956	0.9705933218776125	0.1076
52	1.737882764654418	1.065388315899323	0.9449738034408828	0.0301	1.1735763815173594	0.9148539900465877	0.0301	1.1646174147286659	0.5924072655878913	0.129	1.167884883991302	0.5285693150264833	0.023	1.1776225769226378	0.4955381214029443	0.2179	1.2126949089289065	0.5143548074920036	0.1804	1.1599322719353538	0.5085128285672156	-0.0119	0.954085244483394	0.9337947372873788	0.0301	0.9034013356580658	0.46393082304340777	0.129	0.8439539026743038	-0.008889993186886892	0.023	0.8260943876728037	-0.046996984900802063	0.2179	0.7695913695738793	-0.06615187488564869	0.1804	0.8412438502666592	-0.09014591703954503	-0.0119	1.1886680076088045	1.5078000498721436	0.0008	1.253840876555713	1.6809234786210443	0.0655	1.2456094962976347	1.5679943697582688	0.1076	1.3395538114620664	1.417443554151829	-0.01275	1.4515671389527571	1.1589509918535932	0.0702	1.5481419357196005	0.8999166212033474	0.1076	0.9888982347687476	1.47013923076926	-0.01275	0.8486425184168858	1.1974618235442775	0.0702	0.8560276660707229	0.9778468972356861	0.1076
